<!-- Created with Inkscape (http://www.inkscape.org/) -->
<svg xmlns:rdf="http://www.w3.org/1999/02/22-rdf-syntax-ns#" xmlns="http://www.w3.org/2000/svg" height="560" width="800" version="1.1" xmlns:cc="http://creativecommons.org/ns#" xmlns:dc="http://purl.org/dc/elements/1.1/">
<title>Tlumx logo</title>
<metadata>
<rdf:RDF>
<cc:Work rdf:about="">
<dc:format>image/svg+xml</dc:format>
<dc:type rdf:resource="http://purl.org/dc/dcmitype/StillImage"/>
<dc:title>Tlumx logo</dc:title>
<dc:creator>
<cc:Agent>
<dc:title>Tlumx</dc:title>
</cc:Agent>
</dc:creator>
<dc:rights>
<cc:Agent>
<dc:title>Tlumx</dc:title>
</cc:Agent>
</dc:rights>
<dc:publisher>
<cc:Agent>
<dc:title>Tlumx</dc:title>
</cc:Agent>
</dc:publisher>
<dc:identifier>Tlumx.com</dc:identifier>
<dc:source>Tlumx.com</dc:source>
<dc:subject>
<rdf:Bag>
<rdf:li>Tlumx logo</rdf:li>
</rdf:Bag>
</dc:subject>
<dc:description>Tlumx logo</dc:description>
<dc:date/>
</cc:Work>
</rdf:RDF>
</metadata>
<g transform="translate(0,-28.000001)">
<g transform="translate(0,-77)">
<g transform="translate(0,382.596)">
<g fill="#FFF" transform="translate(0,-135)">
<path fill-rule="nonzero" d="m0-10.596,320,46,20,24,40-64-40,0,30-34,60,0,30,98,20-24,320-46-172,146-58,8-30,41-78,15-26,55,40,55-76,108-76-108,40-55-26-55-78-15-30-41-58-8z"/>
</g>
</g>
<path d="m-540,240-45.813,84.105-38.89-87.522-94.145-17.581,71.22-64.032-12.372-94.97,82.906,47.948,86.499-41.114-19.981,93.665,65.832,69.56z" transform="matrix(0.09919197,-0.08406901,0.08025661,0.10390385,443.6513,56.811948)" fill="#FF0"/>
<path d="m-540,240-45.813,84.105-38.89-87.522-94.145-17.581,71.22-64.032-12.372-94.97,82.906,47.948,86.499-41.114-19.981,93.665,65.832,69.56z" transform="matrix(0.09919197,-0.08406901,0.08025661,0.10390385,235.6513,171.81195)" fill="#FF0"/>
<path d="m-540,240-45.813,84.105-38.89-87.522-94.145-17.581,71.22-64.032-12.372-94.97,82.906,47.948,86.499-41.114-19.981,93.665,65.832,69.56z" transform="matrix(0.09919197,-0.08406901,0.08025661,0.10390385,650.6513,171.81195)" fill="#FF0"/>
<path d="m-540,240-45.813,84.105-38.89-87.522-94.145-17.581,71.22-64.032-12.372-94.97,82.906,47.948,86.499-41.114-19.981,93.665,65.832,69.56z" transform="matrix(0.09919197,-0.08406901,0.08025661,0.10390385,183.6513,320.81195)" fill="#FF0"/>
<path d="m-540,240-45.813,84.105-38.89-87.522-94.145-17.581,71.22-64.032-12.372-94.97,82.906,47.948,86.499-41.114-19.981,93.665,65.832,69.56z" transform="matrix(0.09919197,-0.08406901,0.08025661,0.10390385,271.6513,129.81195)" fill="#FF0"/>
<path d="m-540,240-45.813,84.105-38.89-87.522-94.145-17.581,71.22-64.032-12.372-94.97,82.906,47.948,86.499-41.114-19.981,93.665,65.832,69.56z" transform="matrix(0.09919197,-0.08406901,0.08025661,0.10390385,318.6513,92.811948)" fill="#FF0"/>
<path d="m-540,240-45.813,84.105-38.89-87.522-94.145-17.581,71.22-64.032-12.372-94.97,82.906,47.948,86.499-41.114-19.981,93.665,65.832,69.56z" transform="matrix(0.09919197,-0.08406901,0.08025661,0.10390385,378.6513,66.811948)" fill="#FF0"/>
<path d="m-540,240-45.813,84.105-38.89-87.522-94.145-17.581,71.22-64.032-12.372-94.97,82.906,47.948,86.499-41.114-19.981,93.665,65.832,69.56z" transform="matrix(0.09919197,-0.08406901,0.08025661,0.10390385,614.6513,129.81195)" fill="#FF0"/>
<path d="m-540,240-45.813,84.105-38.89-87.522-94.145-17.581,71.22-64.032-12.372-94.97,82.906,47.948,86.499-41.114-19.981,93.665,65.832,69.56z" transform="matrix(0.09919197,-0.08406901,0.08025661,0.10390385,567.6513,92.811948)" fill="#FF0"/>
<path d="m-540,240-45.813,84.105-38.89-87.522-94.145-17.581,71.22-64.032-12.372-94.97,82.906,47.948,86.499-41.114-19.981,93.665,65.832,69.56z" transform="matrix(0.09919197,-0.08406901,0.08025661,0.10390385,507.6513,66.811948)" fill="#FF0"/>
<path d="m-540,240-45.813,84.105-38.89-87.522-94.145-17.581,71.22-64.032-12.372-94.97,82.906,47.948,86.499-41.114-19.981,93.665,65.832,69.56z" transform="matrix(0.09919197,-0.08406901,0.08025661,0.10390385,397.6513,577.81195)" fill="#FF0"/>
<path d="m-540,240-45.813,84.105-38.89-87.522-94.145-17.581,71.22-64.032-12.372-94.97,82.906,47.948,86.499-41.114-19.981,93.665,65.832,69.56z" transform="matrix(0.09919197,-0.08406901,0.08025661,0.10390385,240.6513,486.81195)" fill="#FF0"/>
<path d="m-540,240-45.813,84.105-38.89-87.522-94.145-17.581,71.22-64.032-12.372-94.97,82.906,47.948,86.499-41.114-19.981,93.665,65.832,69.56z" transform="matrix(0.09919197,-0.08406901,0.08025661,0.10390385,188.6513,379.81195)" fill="#FF0"/>
<path d="m-540,240-45.813,84.105-38.89-87.522-94.145-17.581,71.22-64.032-12.372-94.97,82.906,47.948,86.499-41.114-19.981,93.665,65.832,69.56z" transform="matrix(0.09919197,-0.08406901,0.08025661,0.10390385,208.6513,435.81195)" fill="#FF0"/>
<path d="m-540,240-45.813,84.105-38.89-87.522-94.145-17.581,71.22-64.032-12.372-94.97,82.906,47.948,86.499-41.114-19.981,93.665,65.832,69.56z" transform="matrix(0.09919197,-0.08406901,0.08025661,0.10390385,284.6513,528.81195)" fill="#FF0"/>
<path d="m-540,240-45.813,84.105-38.89-87.522-94.145-17.581,71.22-64.032-12.372-94.97,82.906,47.948,86.499-41.114-19.981,93.665,65.832,69.56z" transform="matrix(0.09919197,-0.08406901,0.08025661,0.10390385,336.6513,559.81195)" fill="#FF0"/>
<path d="m-540,240-45.813,84.105-38.89-87.522-94.145-17.581,71.22-64.032-12.372-94.97,82.906,47.948,86.499-41.114-19.981,93.665,65.832,69.56z" transform="matrix(0.09919197,-0.08406901,0.08025661,0.10390385,702.6513,320.81195)" fill="#FF0"/>
<path d="m-540,240-45.813,84.105-38.89-87.522-94.145-17.581,71.22-64.032-12.372-94.97,82.906,47.948,86.499-41.114-19.981,93.665,65.832,69.56z" transform="matrix(0.09919197,-0.08406901,0.08025661,0.10390385,697.6513,379.81195)" fill="#FF0"/>
<path d="m-540,240-45.813,84.105-38.89-87.522-94.145-17.581,71.22-64.032-12.372-94.97,82.906,47.948,86.499-41.114-19.981,93.665,65.832,69.56z" transform="matrix(0.09919197,-0.08406901,0.08025661,0.10390385,677.6513,435.81195)" fill="#FF0"/>
<path d="m-540,240-45.813,84.105-38.89-87.522-94.145-17.581,71.22-64.032-12.372-94.97,82.906,47.948,86.499-41.114-19.981,93.665,65.832,69.56z" transform="matrix(0.09919197,-0.08406901,0.08025661,0.10390385,645.6513,486.81195)" fill="#FF0"/>
<path d="m-540,240-45.813,84.105-38.89-87.522-94.145-17.581,71.22-64.032-12.372-94.97,82.906,47.948,86.499-41.114-19.981,93.665,65.832,69.56z" transform="matrix(0.09919197,-0.08406901,0.08025661,0.10390385,601.6513,528.81195)" fill="#FF0"/>
<path d="m-540,240-45.813,84.105-38.89-87.522-94.145-17.581,71.22-64.032-12.372-94.97,82.906,47.948,86.499-41.114-19.981,93.665,65.832,69.56z" transform="matrix(0.09919197,-0.08406901,0.08025661,0.10390385,549.6513,559.81195)" fill="#FF0"/>
<path d="m-540,240-45.813,84.105-38.89-87.522-94.145-17.581,71.22-64.032-12.372-94.97,82.906,47.948,86.499-41.114-19.981,93.665,65.832,69.56z" transform="matrix(0.09919197,-0.08406901,0.08025661,0.10390385,488.6513,577.81195)" fill="#FF0"/>
</g>
</g>
</svg>
