<!-- Created with Inkscape (http://www.inkscape.org/) -->
<svg xmlns:rdf="http://www.w3.org/1999/02/22-rdf-syntax-ns#" xmlns="http://www.w3.org/2000/svg" height="530" width="800" version="1.1" xmlns:cc="http://creativecommons.org/ns#" xmlns:dc="http://purl.org/dc/elements/1.1/">
<title>Tlumx logo</title>
<metadata>
<rdf:RDF>
<cc:Work rdf:about="">
<dc:format>image/svg+xml</dc:format>
<dc:type rdf:resource="http://purl.org/dc/dcmitype/StillImage"/>
<dc:title>Tlumx logo</dc:title>
<dc:creator>
<cc:Agent>
<dc:title>Tlumx</dc:title>
</cc:Agent>
</dc:creator>
<dc:rights>
<cc:Agent>
<dc:title>Tlumx</dc:title>
</cc:Agent>
</dc:rights>
<dc:publisher>
<cc:Agent>
<dc:title>Tlumx</dc:title>
</cc:Agent>
</dc:publisher>
<dc:identifier>Tlumx.com</dc:identifier>
<dc:source>Tlumx.com</dc:source>
<dc:subject>
<rdf:Bag>
<rdf:li>Tlumx logo</rdf:li>
</rdf:Bag>
</dc:subject>
<dc:description>Tlumx logo</dc:description>
<dc:date/>
</cc:Work>
</rdf:RDF>
</metadata>
<g fill="#000" transform="translate(0,324.59804)">
<g fill="#000" transform="translate(0,-212)">
<path style="direction:ltr;enable-background:accumulate;baseline-shift:baseline;block-progression:tb;text-indent:0;color:#000000;text-transform:none;text-align:start;" d="M392.93-112.11c-160.27-0.2-288.8,178.55-233.28,330.21,38.03,125.03,181.86,204.06,307.44,164.8,138.76-36.05,225.39-201.51,168.91-334.87-37.9-96.879-137.72-167.2-243.07-160.14zm0.12,4.17c150.51-11.44,285.13,142.99,251.5,290.77-22.12,132.47-162.21,230.71-294.33,200.62-133.16-23.81-227.72-169.24-191.34-300.4,26.35-105.5,123.68-190.16,234.17-190.99z"/>
<path fill-rule="nonzero" d="m0-10.596,320,46,20,24,40-64-40,0,30-34,60,0,30,98,20-24,320-46-172,146-58,8-30,41-78,15-26,55,40,55-76,108-76-108,40-55-26-55-78-15-30-41-58-8z"/>
</g>
</g>
</svg>
