<!-- Created with Inkscape (http://www.inkscape.org/) -->
<svg xmlns:rdf="http://www.w3.org/1999/02/22-rdf-syntax-ns#" xmlns="http://www.w3.org/2000/svg" height="800" width="800" version="1.1" xmlns:cc="http://creativecommons.org/ns#" xmlns:dc="http://purl.org/dc/elements/1.1/">
<title>Tlumx logo</title>
<metadata>
<rdf:RDF>
<cc:Work rdf:about="">
<dc:format>image/svg+xml</dc:format>
<dc:type rdf:resource="http://purl.org/dc/dcmitype/StillImage"/>
<dc:title>Tlumx logo</dc:title>
<dc:creator>
<cc:Agent>
<dc:title>Tlumx</dc:title>
</cc:Agent>
</dc:creator>
<dc:rights>
<cc:Agent>
<dc:title>Tlumx</dc:title>
</cc:Agent>
</dc:rights>
<dc:publisher>
<cc:Agent>
<dc:title>Tlumx</dc:title>
</cc:Agent>
</dc:publisher>
<dc:identifier>Tlumx.com</dc:identifier>
<dc:source>Tlumx.com</dc:source>
<dc:subject>
<rdf:Bag>
<rdf:li>Tlumx logo</rdf:li>
</rdf:Bag>
</dc:subject>
<dc:description>Tlumx logo</dc:description>
<dc:date/>
</cc:Work>
</rdf:RDF>
</metadata>
<g fill="#000" transform="translate(0,382.596)">
<g transform="translate(0,-212)">
<path style="direction:ltr;baseline-shift:baseline;block-progression:tb;text-indent:0;color:#000000;enable-background:accumulate;text-transform:none;text-align:start;" d="M392.93-112.11c-160.27-0.2-288.8,178.55-233.28,330.21,38.03,125.03,181.86,204.06,307.44,164.8,138.76-36.05,225.39-201.51,168.91-334.87-37.9-96.879-137.72-167.2-243.07-160.14zm0.12,4.17c150.51-11.44,285.13,142.99,251.5,290.77-22.12,132.47-162.21,230.71-294.33,200.62-133.16-23.81-227.72-169.24-191.34-300.4,26.35-105.5,123.68-190.16,234.17-190.99z"/>
<path fill-rule="nonzero" d="M0-10.596,320,35.404,340,59.404,380-4.596,340-4.596,370-38.596,430-38.596,460,59.404,480,35.404,800-10.596,628,135.4,570,143.4,540,184.4,462,199.4,436,254.4,476,309.4,400,417.4,324,309.4,364,254.4,338,199.4,260,184.4,230,143.4,172,135.4z"/>
</g>
<path d="M607.55,353.65,647.42,299.93,606.26,250.57,624.5,250.57,659.5,289.66,692.4,250.57,709.24,250.57,671.03,299.15,710.05,353.65,691.18,353.65,658.73,311.98,625.93,353.65,607.55,353.65m-137.04,0,0-103.08,18.9,0,41.98,90.24,40.71-90.24,16.68,0,0,103.08-15.39,0,0-86.28-38.48,86.28-8.53,0-40.49-87.75,0,87.75-15.38,0m-18.22-103.08,0.49,96.23c0.02,4.24-5.49,8.18-9.73,8.19l-87.58,0.21c-4.09,0.01-9.43-3.71-9.47-7.8l-0.78-96.83h17.64l1.04,93.08,70.35,0.63,0.4-93.71m-198.5,103.08,0-103.08,17.64,0,0,90.91,74.77,0,0,12.17-92.41,0m-90.24,0,0-92.92-55.961,0,0-10.16,129.7,0,0,10.16-56.1,0,0,92.92"/>
</g>
</svg>
